PathFileType	4	(X/Y/Z)	C:/Users/opensim2020/Desktop/walking_exp_matlab/subject02_walking07_straight_02.trc	
DataRate	CameraRate	NumFrames	NumMarkers	Units	OrigDataRate	OrigDataStartFrame	OrigNumFrames	
100.00	100.00	8	50	mm	100.00	1331	210	
Frame#	Time	LFHD			RFHD			LBHD			RBHD			C7			T10			CLAV			STRN			RBAK			LSHO			LUPA			LELB			LFRM			LWRA			LWRB			LFIN			RSHO			RUPA			RELB			RFRM			RWRA			RWRB			RFIN			LASI			RASI			LPSI			RPSI			LTHI			LKNE			LTIB			LANK			LHEE			LTOE			RTHI			RKNE			RTIB			RANK			RHEE			RTOE			*39			*40			*41			*42			*43			*44			*45			*46			*47			*48			*49			
		X1	Y1	Z1	X2	Y2	Z2	X3	Y3	Z3	X4	Y4	Z4	X5	Y5	Z5	X6	Y6	Z6	X7	Y7	Z7	X8	Y8	Z8	X9	Y9	Z9	X10	Y10	Z10	X11	Y11	Z11	X12	Y12	Z12	X13	Y13	Z13	X14	Y14	Z14	X15	Y15	Z15	X16	Y16	Z16	X17	Y17	Z17	X18	Y18	Z18	X19	Y19	Z19	X20	Y20	Z20	X21	Y21	Z21	X22	Y22	Z22	X23	Y23	Z23	X24	Y24	Z24	X25	Y25	Z25	X26	Y26	Z26	X27	Y27	Z27	X28	Y28	Z28	X29	Y29	Z29	X30	Y30	Z30	X31	Y31	Z31	X32	Y32	Z32	X33	Y33	Z33	X34	Y34	Z34	X35	Y35	Z35	X36	Y36	Z36	X37	Y37	Z37	X38	Y38	Z38	X39	Y39	Z39	X40	Y40	Z40	X41	Y41	Z41	X42	Y42	Z42	X43	Y43	Z43	X44	Y44	Z44	X45	Y45	Z45	X46	Y46	Z46	X47	Y47	Z47	X48	Y48	Z48	X49	Y49	Z49	X50	Y50	Z50	

1	0.000	-929.47968	770.17004	1741.07214	-1072.89294	781.04584	1724.99548	-913.01178	899.95300	1665.10645	-1054.01038	922.55414	1647.69360	-985.84271	961.33624	1527.49988	-993.99359	1023.20361	1255.83130	-980.11908	823.12683	1455.96851	-1004.53198	776.98004	1283.16602	-1056.20508	1025.34180	1361.03491	-809.04688	890.28503	1492.95581	-728.89111	953.61151	1306.98914	-717.36420	998.83191	1176.85229	-688.61377	1044.37488	1057.68774	-687.10736	1039.88000	917.75366	-670.67023	1087.24939	943.30817	-653.70636	1097.07239	879.25311	-1171.99500	887.00635	1502.86414	-1278.07434	876.15582	1322.71045	-1314.88879	816.16962	1190.40271	-1338.44714	743.05487	1095.72058	-1323.68066	650.72028	997.61670	-1360.89355	689.29523	979.01483	-1365.49109	628.87164	939.87683	-894.19220	782.60010	988.19452	-1148.42090	822.70367	974.87335	-941.31604	1000.52557	1033.30249	-1053.27075	1023.57019	1036.96155	-826.01056	776.00464	685.82159	-863.12054	734.65973	492.53012	-862.21021	727.72589	298.95688	-893.62549	650.05304	88.23348	-946.34772	676.28613	52.21839	-892.29016	494.03882	92.64365	-1185.78003	951.13055	675.04620	-1138.80457	985.39172	467.45041	-1132.21716	1058.27588	293.12323	-1087.17554	1097.94482	103.67836	-1025.62048	1128.31616	50.47056	-1129.48792	956.05096	41.11146	-1010.93256	878.81500	1807.60498	-3360.24512	2845.24585	1033.80005																											 
2	0.010	-929.46149	761.65613	1739.39966	-1072.85352	771.95691	1723.76294	-912.98987	890.98926	1663.83765	-1054.12769	913.46667	1646.31177	-986.07275	952.12524	1526.13501	-994.11243	1014.08582	1254.50110	-980.29016	813.83295	1454.54968	-1004.75073	767.78760	1281.72400	-1056.31543	1016.15875	1359.72961	-809.21539	881.04926	1491.47375	-729.49988	945.15283	1305.79895	-718.36810	991.28247	1175.93933	-689.69885	1037.66882	1057.29797	-687.99347	1034.52283	917.03583	-671.87640	1082.01074	943.31708	-654.77264	1092.54810	879.25989	-1172.18921	877.73114	1501.39734	-1278.26892	866.24188	1321.32422	-1315.21033	805.29388	1189.42651	-1338.66174	730.87616	1095.67957	-1323.62939	637.17816	998.96851	-1360.73535	675.50879	979.68268	-1365.07910	614.48071	941.46405	-895.27570	773.12878	986.99542	-1149.50244	814.52008	973.70050	-941.51733	991.63177	1032.19641	-1053.06030	1014.66925	1035.57214	-826.19214	766.63922	684.83154	-863.28925	724.54071	491.43716	-861.56055	712.30316	298.21716	-893.45367	629.09735	89.59081	-945.95319	654.82941	52.85527	-894.00433	473.07187	97.37327	-1186.03552	945.01611	674.36121	-1138.62903	981.18793	467.03525	-1131.99414	1055.96509	293.60294	-1086.96021	1097.36157	104.50028	-1025.21936	1127.77319	51.43228	-1129.66821	955.86023	41.21549	-1011.17261	869.81573	1806.18652	-3357.38892	2845.89624	1034.06323																											 
3	0.020	-929.06812	752.82269	1738.31689	-1072.75635	762.86395	1722.53467	-912.97888	881.93823	1662.54187	-1054.11328	904.33588	1644.95605	-986.10266	942.82886	1524.74670	-994.14740	1004.82159	1253.16687	-980.30420	804.43317	1453.16638	-1004.91248	758.50958	1280.33655	-1056.18835	1006.86993	1358.31458	-809.17383	871.70581	1490.03564	-729.92657	936.41333	1304.44629	-719.26038	983.26538	1174.80408	-690.96375	1030.92285	1056.62073	-688.71271	1028.75378	916.27295	-673.05896	1075.99231	943.07428	-656.31378	1087.62317	879.18726	-1172.36133	868.45892	1499.92432	-1278.08167	856.52252	1319.74475	-1315.33313	794.61060	1188.35803	-1338.56543	719.04156	1095.47705	-1323.39673	624.09949	1000.08691	-1360.32068	662.19080	980.13202	-1364.76538	600.62109	942.92755	-896.34680	763.47705	985.66949	-1150.42859	805.96515	972.29614	-941.25897	982.18323	1030.82507	-1052.75537	1005.55115	1034.18457	-826.45667	756.52783	683.66840	-863.35345	714.06952	490.28079	-860.95154	697.61652	297.57962	-893.34161	609.73279	90.81283	-945.49738	635.14728	53.31655	-894.85626	453.80215	101.76624	-1186.24646	938.86774	673.74371	-1138.69629	976.81580	466.70541	-1131.66223	1053.60767	294.13266	-1086.73083	1096.75464	105.34776	-1024.92139	1127.49060	52.61375	-1129.99548	955.90802	41.10749	-1010.84888	860.78015	1804.80530	-3357.35181	2845.76099	1034.20166																											 
4	0.030	-928.84729	742.92462	1737.12061	-1072.44617	753.70422	1721.28760	-912.90295	872.60565	1660.94043	-1053.85437	894.95447	1643.42566	-986.03497	933.47552	1523.38623	-993.97845	995.40204	1251.81580	-980.19983	795.05231	1451.67822	-1004.97400	749.16632	1278.89417	-1055.96057	997.57239	1356.91956	-809.04602	862.19574	1488.53601	-730.14044	927.38391	1303.04736	-719.66199	975.17133	1173.74951	-691.74988	1023.50220	1055.92688	-689.78241	1022.25140	915.33728	-674.24060	1069.27222	942.53082	-657.69049	1081.85730	878.64679	-1172.35925	859.16510	1498.51685	-1277.79822	846.86835	1318.17981	-1315.43262	784.24261	1187.34546	-1338.30347	707.47772	1095.10974	-1322.90784	611.41797	1001.03595	-1359.65747	649.28979	980.39117	-1364.73682	587.28918	944.30548	-897.12988	753.14417	984.49829	-1151.15125	797.23291	970.81537	-940.95813	972.68848	1029.42957	-1052.42920	996.29938	1032.81299	-826.76202	746.04767	682.69037	-863.51990	703.76245	489.25754	-860.70959	683.88275	296.94724	-892.98883	592.31696	91.78408	-944.97107	617.12836	53.63649	-895.18976	436.41650	105.36783	-1186.32288	932.50922	673.09241	-1138.77734	972.21930	466.43134	-1131.28247	1051.14429	294.76166	-1086.57227	1096.10510	106.36803	-1024.69336	1127.10657	54.06573	-1130.02747	955.89905	40.99208	-1010.56793	851.80658	1803.42102	-3360.23193	2845.13281	1033.89111																											 
5	0.040	-929.00287	734.28925	1735.61426	-1072.24878	744.42944	1720.00940	-912.59723	863.41510	1659.68164	-1053.69739	885.78253	1642.16528	-985.78290	923.98547	1522.02100	-993.72913	985.88269	1250.47168	-980.04364	785.52612	1450.30249	-1004.98676	739.68597	1277.52136	-1055.55859	988.18054	1355.54407	-808.85742	852.49573	1487.04163	-730.26184	918.11926	1301.68176	-720.21027	966.51483	1172.54150	-692.46552	1015.38635	1054.90271	-690.63440	1015.30774	914.53375	-675.23535	1061.92908	941.76703	-659.24298	1075.34814	877.89813	-1172.22131	849.79785	1497.06970	-1277.95630	837.48096	1316.82092	-1315.19568	774.04224	1186.12231	-1337.87842	696.30511	1094.63367	-1322.26172	599.17456	1001.76770	-1358.84338	636.88898	980.48047	-1363.56555	574.21259	945.08942	-897.85010	743.60217	983.11169	-1151.72009	788.34094	969.36316	-940.57794	963.04999	1028.11145	-1052.03162	986.85016	1031.48071	-827.50909	734.99506	681.76343	-863.64093	693.31018	488.24765	-860.62579	671.20093	296.29684	-892.53772	576.63055	92.42492	-944.36444	601.10944	53.77325	-895.10571	420.81787	107.71582	-1186.36182	926.09003	672.53864	-1139.15295	967.37695	466.26483	-1131.07202	1048.30884	295.43201	-1086.46106	1095.34326	107.45540	-1024.49841	1126.71631	55.56957	-1130.40198	955.79364	40.95678	-1010.29840	842.70221	1802.17664																														 
6	0.050	-928.15643	725.35553	1734.57227	-1071.77515	735.30939	1718.93274	-912.15918	854.25629	1658.25684	-1053.29370	876.49432	1640.82056	-985.39459	914.41650	1520.64783	-993.33972	976.22424	1249.13037	-979.88867	775.82428	1448.77502	-1004.82355	730.14935	1276.19202	-1055.05542	978.74994	1354.17188	-808.42535	842.70410	1485.64148	-730.19464	908.53265	1300.26440	-720.99866	957.23090	1171.15051	-693.15277	1006.97626	1053.75720	-691.69904	1007.30853	912.90881	-676.11871	1054.05518	940.85455	-660.75006	1067.81311	876.91553	-1171.97583	840.37177	1495.71301	-1277.10046	828.07587	1315.13452	-1314.75671	764.10144	1184.85034	-1337.19678	685.44452	1093.94421	-1321.45911	587.28821	1002.30957	-1357.71484	624.89014	980.32092	-1362.77332	562.01874	945.92517	-898.28534	733.48199	981.90778	-1152.11670	779.20496	967.87946	-940.16278	953.32068	1026.82996	-1051.56665	977.13599	1030.06689	-828.27228	723.44812	680.79401	-863.52179	682.39954	487.47052	-860.59064	659.42761	295.62228	-891.97296	562.98438	92.54691	-943.73474	587.14301	53.55927	-894.77637	407.24850	108.63675	-1186.39868	919.48328	672.10016	-1139.22412	962.33173	466.04437	-1130.98486	1045.24170	296.15088	-1086.34106	1094.64160	108.90997	-1024.27771	1126.11230	57.29016	-1130.44421	955.69476	40.90815	-1009.81097	833.60547	1800.84155	-3357.37378	2845.81665	1033.97913																											 
7	0.060	-927.95581	715.44592	1733.39758	-1071.27209	726.02704	1717.85791	-911.71759	844.77808	1656.86316	-1052.74207	866.97052	1639.45801	-984.86163	904.78217	1519.34851	-992.91608	966.44861	1247.85022	-979.35541	766.25800	1447.59192	-1004.58112	720.45917	1274.93274	-1054.34741	969.01825	1352.84705	-807.91370	832.84839	1484.28833	-730.08344	898.88354	1298.71497	-721.12872	948.07874	1169.80872	-693.91644	997.75708	1052.45898	-693.22150	998.82489	911.52533	-677.17285	1045.17432	939.44012	-662.27905	1059.62097	875.60803	-1171.88977	830.87842	1494.48132	-1276.09424	818.68445	1313.52307	-1314.14648	754.41296	1183.50708	-1336.37268	674.92493	1093.18762	-1320.36755	575.84705	1002.56171	-1356.39905	613.33716	979.99243	-1361.86743	550.11847	946.48273	-898.47833	722.77838	980.70502	-1152.36133	769.95282	966.40771	-939.70966	943.49426	1025.60999	-1051.09680	967.41376	1028.72925	-828.79547	711.78998	680.21930	-863.27130	671.45367	486.75861	-860.24554	648.25488	294.88834	-891.47461	551.41675	92.05119	-943.25330	575.39063	52.97088	-894.17340	395.72516	108.23214	-1186.35022	912.58722	671.68512	-1139.74719	956.88013	465.95792	-1131.02197	1041.96667	297.01486	-1086.54089	1093.70825	110.33042	-1024.24695	1125.68030	59.28704	-1130.63159	955.58746	40.81296	-1009.26971	824.42969	1799.55872																														 
8	0.070	-927.11469	706.74133	1732.50439	-1070.64648	716.68542	1716.87305	-911.09229	835.39063	1655.89539	-1052.13208	857.52759	1638.27209	-984.24164	895.16229	1518.13831	-992.31219	956.44012	1246.60706	-978.84009	756.47131	1446.41968	-1004.28192	710.65497	1273.79395	-1053.71680	959.42706	1351.66516	-807.31445	822.87140	1482.97253	-729.80359	888.95764	1297.31323	-721.17920	938.17993	1168.23962	-694.42108	988.17310	1050.94177	-694.24811	989.67072	909.85913	-677.95148	1035.86377	938.11682	-663.82098	1050.76245	873.98425	-1171.15955	821.36108	1493.18408	-1274.87036	809.39117	1311.93713	-1313.34180	744.90643	1181.98840	-1335.36316	664.70593	1092.26514	-1319.15820	564.88629	1002.68512	-1354.81470	602.27441	979.35022	-1360.03333	538.60382	946.69000	-898.46625	712.67261	979.51471	-1152.35449	760.44531	964.98877	-939.19397	933.45795	1024.42627	-1050.53406	957.46936	1027.45459	-828.94275	700.00903	679.91669	-862.90076	660.17767	486.14859	-859.74573	637.84247	294.11746	-891.09216	541.75989	90.93774	-942.83380	565.72308	51.87365	-893.48694	386.07239	106.57642	-1186.28101	905.41296	671.35132	-1140.04468	950.96423	465.76648	-1131.18555	1038.41956	297.97784	-1086.87183	1092.78931	112.09174	-1024.58252	1125.18152	61.56213	-1130.88098	955.46521	40.75615	-1008.68488	815.14941	1798.49756	-3356.80933	2845.83984	1033.90955																											 
